<svg width="108" height="35" viewBox="0 0 108 35" fill="none" xmlns="http://www.w3.org/2000/svg">
<path d="M21.69 27.832C21.118 27.546 20.568 27.216 20.392 25.456C20.238 24.422 20.326 22.684 20.48 21.232C20.898 17.8 21.844 13.488 22.504 10.804L22.702 10.056L22.658 9.968C22.57 9.858 22.394 9.814 21.932 9.77C21.338 9.704 20.942 9.748 18.72 9.77C16.564 9.77 15.684 9.748 15.134 9.638C14.826 9.572 14.738 9.528 14.562 9.44C14.254 9.264 14.034 9.044 14.012 8.846C13.99 8.78 14.012 8.736 14.056 8.67C14.298 8.274 16.08 7.504 17.994 6.954C20.832 6.14 24.792 5.414 27.278 5.282C28.466 5.216 29.126 5.238 30.028 5.392C30.82 5.524 31.128 5.612 31.656 5.854C32.03 6.03 32.228 6.14 32.492 6.338C32.888 6.646 33.086 6.91 33.174 7.262C33.24 7.526 33.262 7.724 33.196 8.054C33.13 8.45 32.976 8.78 32.69 9.198C32.536 9.44 32.426 9.528 32.25 9.616C31.854 9.792 31.502 9.682 31.37 9.352C31.282 9.154 31.282 8.978 31.37 8.648C31.414 8.494 31.458 8.208 31.502 8.01C31.546 7.702 31.546 7.614 31.524 7.416C31.502 7.174 31.392 6.888 31.326 6.844C31.194 6.756 30.732 6.646 30.292 6.602C29.236 6.47 27.784 6.47 26.156 6.624C25.65 6.668 24.55 6.778 24.528 6.8C24.528 6.8 24.594 6.822 24.66 6.844C25.1 6.91 25.518 7.174 25.54 7.394C25.54 7.438 25.408 7.944 25.232 8.516C24.814 9.968 24.352 11.684 23.956 13.378C23.186 16.48 22.658 19.472 22.262 23.08C22.086 24.51 22.064 25.72 22.174 26.644L22.196 26.864L22.372 26.886C22.504 26.886 22.526 26.908 22.592 26.974C22.702 27.084 22.768 27.282 22.746 27.524C22.724 27.7 22.702 27.7 22.636 27.788C22.526 27.876 22.372 27.92 22.174 27.92C21.976 27.92 21.91 27.92 21.69 27.832ZM16.476 8.824C16.52 8.824 16.63 8.824 16.74 8.824C16.872 8.824 17.554 8.824 18.28 8.824C20.414 8.824 21.14 8.868 21.822 9C22.218 9.088 22.57 9.198 22.834 9.352C22.922 9.396 22.966 9.418 22.988 9.396C23.01 9.396 23.054 9.264 23.12 9.11C23.516 8.054 23.956 7.13 24.154 6.91C24.198 6.888 24.242 6.844 24.22 6.844C24.198 6.844 23.758 6.91 23.076 7.02C21.206 7.306 18.962 7.878 17.488 8.384C16.982 8.56 16.41 8.78 16.41 8.802C16.41 8.802 16.432 8.824 16.476 8.824ZM28.9462 21.452C28.2642 22.574 27.9562 22.992 27.6042 23.322C27.1422 23.74 26.6142 23.894 25.9542 23.762C25.6682 23.718 25.4702 23.608 25.3602 23.454C24.8542 22.816 25.2722 20.638 26.2622 19.23C26.5482 18.812 26.7902 18.548 27.1642 18.24C27.7582 17.69 28.2202 17.492 28.8802 17.47C29.2322 17.47 29.6502 17.734 29.8042 18.02L29.8702 17.954C29.9802 17.822 30.1122 17.778 30.3982 17.756C30.8162 17.734 31.1022 17.822 31.2122 18.02C31.2342 18.042 31.2342 18.042 31.2342 18.042V18.064V18.086L31.1682 18.262C31.1022 18.46 31.0802 18.482 30.9922 18.504C30.9482 18.504 30.9042 18.548 30.9042 18.57C30.7282 19.186 30.2002 20.55 30.1562 21.386C30.0902 22.31 30.2442 22.596 30.5962 22.486C31.4322 22.222 32.9062 19.736 32.9282 19.736C33.4122 19.648 33.6322 20.198 33.5442 20.44C33.2362 21.474 31.9162 22.992 30.9042 23.212C30.1122 23.388 29.1002 23.014 28.9682 21.716C28.9682 21.628 28.9682 21.54 28.9462 21.452ZM26.5922 22.816C26.5922 22.816 26.7022 22.706 26.7902 22.574C27.2302 22.024 27.5382 21.562 28.3962 20.154C28.7042 19.648 29.0562 19.076 29.2102 18.878C29.4522 18.504 29.4522 18.482 29.4082 18.416C29.3202 18.284 29.2102 18.174 29.1222 18.174C28.9242 18.152 28.3962 18.526 28.0662 18.922C27.4942 19.626 26.9442 20.792 26.7022 21.848C26.6142 22.222 26.5482 22.816 26.5922 22.816ZM33.5179 20.748C33.4959 20.792 34.4419 18.746 35.0359 18.658C35.4319 18.592 35.6959 18.68 35.8059 18.9C35.8939 19.12 35.9379 20.132 35.8939 20.638C35.8939 20.66 37.3239 18.328 38.0939 18.108C38.6879 17.888 39.1499 18.482 38.9959 18.79C38.8199 19.406 38.2039 21.122 38.1599 21.958C38.1159 22.882 38.2699 23.168 38.5999 23.058C39.4579 22.794 40.9319 20.308 40.9319 20.308C41.4379 20.22 41.6359 20.792 41.5699 21.012C41.2619 22.068 39.9199 23.586 38.9299 23.806C38.3799 23.916 37.7639 23.784 37.3679 23.3C36.7079 22.486 37.0599 21.232 37.2799 20.33C36.5759 21.518 35.8939 22.882 35.8719 22.926C35.6739 23.058 35.2119 23.08 35.0139 22.948C34.9259 22.904 34.9259 22.882 34.8819 22.442C34.8379 22.024 34.8159 20.88 34.8379 20.176C34.8379 20.044 34.8379 19.912 34.8379 19.912C34.1779 21.078 33.7819 22.376 33.3199 23.652C33.0999 24.246 33.0339 24.334 32.8799 24.378C32.6819 24.444 32.4179 24.444 32.2419 24.4C32.0219 24.356 31.9119 24.29 31.8679 24.18C31.8019 24.048 31.8019 23.322 31.8239 22.882C31.8679 22.42 31.9999 21.716 32.1539 20.968C32.3519 20.11 32.7479 18.504 32.7919 18.438C32.8359 18.35 32.9899 18.306 33.2319 18.306C33.7379 18.306 33.8699 18.482 33.8039 19.076C33.7819 19.296 33.5839 20.374 33.5179 20.748ZM44.0927 21.452C43.4107 22.574 43.1027 22.992 42.7507 23.322C42.2887 23.74 41.7607 23.894 41.1007 23.762C40.8147 23.718 40.6167 23.608 40.5067 23.454C40.0007 22.816 40.4187 20.638 41.4087 19.23C41.6947 18.812 41.9367 18.548 42.3107 18.24C42.9047 17.69 43.3667 17.492 44.0267 17.47C44.3787 17.47 44.7967 17.734 44.9507 18.02L45.0167 17.954C45.1267 17.822 45.2587 17.778 45.5447 17.756C45.9627 17.734 46.2487 17.822 46.3587 18.02C46.3807 18.042 46.3807 18.042 46.3807 18.042V18.064V18.086L46.3147 18.262C46.2487 18.46 46.2267 18.482 46.1387 18.504C46.0947 18.504 46.0507 18.548 46.0507 18.57C45.8747 19.186 45.3467 20.55 45.3027 21.386C45.2367 22.31 45.3907 22.596 45.7427 22.486C46.5787 22.222 48.0527 19.736 48.0747 19.736C48.5587 19.648 48.7787 20.198 48.6907 20.44C48.3827 21.474 47.0627 22.992 46.0507 23.212C45.2587 23.388 44.2467 23.014 44.1147 21.716C44.1147 21.628 44.1147 21.54 44.0927 21.452ZM41.7387 22.816C41.7387 22.816 41.8487 22.706 41.9367 22.574C42.3767 22.024 42.6847 21.562 43.5427 20.154C43.8507 19.648 44.2027 19.076 44.3567 18.878C44.5987 18.504 44.5987 18.482 44.5547 18.416C44.4667 18.284 44.3567 18.174 44.2687 18.174C44.0707 18.152 43.5427 18.526 43.2127 18.922C42.6407 19.626 42.0907 20.792 41.8487 21.848C41.7607 22.222 41.6947 22.816 41.7387 22.816ZM50.9084 22.2C50.8204 21.386 51.5024 19.142 51.4804 19.032C51.1504 18.68 48.8184 22.178 48.5764 23.014C48.3564 23.608 48.3124 23.696 48.1364 23.74C47.9604 23.806 47.6964 23.806 47.4984 23.784C47.2784 23.718 47.1904 23.674 47.1464 23.542C47.0804 23.41 47.0584 22.684 47.1024 22.266C47.1464 21.782 47.2784 21.078 47.4324 20.33C47.6304 19.472 48.0264 17.888 48.0704 17.8C48.1144 17.712 48.2684 17.668 48.5104 17.668C49.0164 17.668 49.1484 17.866 49.0824 18.438C49.0604 18.658 48.7744 20.418 48.7084 20.814C49.2804 19.89 50.2044 18.592 51.3484 18.218C51.7884 18.086 52.2284 18.152 52.4264 18.394C52.9984 19.054 52.1404 21.078 52.0964 21.87C52.0304 22.772 52.1844 23.058 52.5364 22.97C53.3724 22.684 54.8464 20.198 54.8684 20.198C55.3524 20.132 55.5724 20.682 55.4844 20.924C55.1764 21.958 53.8564 23.476 52.8444 23.696C52.0524 23.872 51.0404 23.476 50.9084 22.2ZM66.2598 29.284C65.0718 28.998 64.3678 28.426 64.3898 27.788C64.4338 26.952 65.8418 25.742 67.7558 24.862C68.8778 24.356 70.4398 23.828 71.6938 23.542C72.4638 23.366 74.1138 23.146 74.5978 23.146C74.7738 23.146 74.7738 23.124 74.8618 22.486C74.9498 21.914 74.9718 21.584 74.9058 21.1C74.8178 20.484 74.6418 20.044 74.3338 19.56C73.9818 19.054 73.5858 18.658 73.0578 18.306C72.0458 17.668 71.1218 17.47 68.6798 17.316C67.9318 17.272 67.0518 17.162 66.8098 17.096L66.7218 17.052L66.6338 17.426C66.5898 17.624 66.4798 18.284 66.3698 18.9C66.2378 19.516 66.1058 20.242 66.0398 20.528C65.9738 20.814 65.8418 21.628 65.7098 22.332C65.4458 23.938 65.3138 25.126 65.3358 25.72C65.3358 25.852 65.3138 25.962 65.3138 25.984C65.2698 26.05 65.1158 26.116 64.9178 26.116C64.6758 26.116 64.3898 26.006 64.2578 25.83C64.1478 25.698 64.0598 25.39 64.0158 25.016C63.9278 23.938 63.9938 21.672 64.1918 19.934C64.3458 18.57 64.8078 16.37 65.3138 14.566C65.4238 14.214 65.5338 13.862 65.5338 13.774L65.5778 13.664L65.3578 13.532C65.0938 13.378 64.6318 13.158 64.3898 13.092C64.3018 13.048 63.9498 12.96 63.6198 12.85C62.5638 12.564 62.1458 12.388 61.7938 12.146C61.3978 11.86 61.2878 11.618 61.3318 11.2C61.4418 10.122 62.9158 8.692 65.3358 7.328C67.6238 6.008 69.7798 5.348 71.4518 5.414C71.8698 5.414 72.6838 5.568 73.0138 5.7C73.9378 6.074 74.4878 6.69 74.6418 7.548C74.7958 8.384 74.5318 9.484 73.9598 10.496C73.3438 11.596 72.4638 12.63 71.1218 13.884C70.4178 14.544 69.8238 15.05 68.5478 16.04C68.2178 16.304 67.9318 16.524 67.9318 16.546C67.8878 16.59 67.9098 16.59 68.0418 16.612C68.3498 16.612 69.9118 16.766 70.5058 16.832C72.2218 17.03 73.3658 17.448 74.3558 18.174C74.8398 18.57 75.2798 19.054 75.5658 19.494C75.9838 20.198 76.2478 21.034 76.2478 21.804C76.2698 22.156 76.2038 22.772 76.1598 22.97L76.1158 23.146L76.5558 23.19C76.7978 23.212 77.3478 23.278 77.7878 23.366C78.5358 23.476 78.5798 23.476 78.6898 23.564C78.7778 23.63 78.7998 23.652 78.7778 23.718C78.7558 23.872 78.6238 23.894 77.7218 23.916C77.1058 23.916 75.9178 23.982 75.8958 24.004C75.8738 24.004 75.8078 24.158 75.7198 24.356C75.2578 25.412 74.6198 26.292 73.7618 27.084C73.4098 27.414 72.7058 27.92 72.3098 28.162C70.6598 29.152 68.9218 29.57 67.1398 29.416C66.6778 29.372 66.6998 29.372 66.2598 29.284ZM68.2838 14.808C69.0758 14.192 69.3178 13.994 69.8458 13.51C72.2218 11.354 73.3878 9.352 73.2558 7.68C73.2118 7.24 73.0578 6.8 72.8158 6.536C72.5298 6.228 72.1558 6.096 71.6278 6.074C71.0118 6.074 70.3518 6.206 69.4498 6.514C68.5478 6.822 67.6678 7.218 66.6118 7.812C64.7198 8.89 63.3998 9.924 62.8498 10.738C62.5198 11.222 62.4538 11.574 62.6298 11.816C62.7618 11.992 63.1138 12.146 64.1038 12.476C64.8958 12.762 65.2918 12.938 65.5778 13.136C65.6438 13.18 65.7098 13.224 65.7098 13.224C65.7098 13.224 65.7758 13.026 65.8638 12.806C66.1718 11.86 66.7438 10.342 67.1398 9.418C67.6018 8.362 67.7998 8.032 68.1078 7.922C68.2618 7.856 68.6798 7.922 68.8338 8.032C68.9438 8.098 68.9658 8.186 68.8998 8.384C68.7018 8.912 68.1958 10.606 67.8878 11.772C67.5798 12.96 67.0958 15.16 67.0078 15.6L66.9858 15.754L67.2938 15.534C67.4698 15.424 67.9098 15.094 68.2838 14.808ZM66.6558 28.492C66.8758 28.558 67.4038 28.624 67.7778 28.624C70.3738 28.624 72.7718 27.084 74.1578 24.51C74.2678 24.334 74.3558 24.18 74.3338 24.158C74.3338 24.114 72.7058 24.422 71.8258 24.642C70.0438 25.082 68.4818 25.764 67.3818 26.6C66.9418 26.93 66.6338 27.238 66.4358 27.524C66.0838 28.03 66.1498 28.338 66.6558 28.492ZM81.0673 21.452C80.3853 22.574 80.0773 22.992 79.7253 23.322C79.2633 23.74 78.7353 23.894 78.0753 23.762C77.7893 23.718 77.5913 23.608 77.4813 23.454C76.9753 22.816 77.3933 20.638 78.3833 19.23C78.6693 18.812 78.9113 18.548 79.2853 18.24C79.8793 17.69 80.3413 17.492 81.0013 17.47C81.3533 17.47 81.7713 17.734 81.9253 18.02L81.9913 17.954C82.1013 17.822 82.2333 17.778 82.5193 17.756C82.9373 17.734 83.2233 17.822 83.3333 18.02C83.3553 18.042 83.3553 18.042 83.3553 18.042V18.064V18.086L83.2893 18.262C83.2233 18.46 83.2013 18.482 83.1133 18.504C83.0693 18.504 83.0253 18.548 83.0253 18.57C82.8493 19.186 82.3213 20.55 82.2773 21.386C82.2113 22.31 82.3653 22.596 82.7173 22.486C83.5533 22.222 85.0273 19.736 85.0493 19.736C85.5333 19.648 85.7533 20.198 85.6653 20.44C85.3573 21.474 84.0373 22.992 83.0253 23.212C82.2333 23.388 81.2213 23.014 81.0893 21.716C81.0893 21.628 81.0893 21.54 81.0673 21.452ZM78.7133 22.816C78.7133 22.816 78.8233 22.706 78.9113 22.574C79.3513 22.024 79.6593 21.562 80.5173 20.154C80.8253 19.648 81.1773 19.076 81.3313 18.878C81.5733 18.504 81.5733 18.482 81.5293 18.416C81.4413 18.284 81.3313 18.174 81.2433 18.174C81.0453 18.152 80.5173 18.526 80.1873 18.922C79.6153 19.626 79.0653 20.792 78.8233 21.848C78.7353 22.222 78.6693 22.816 78.7133 22.816ZM85.441 23.586C82.757 23.454 84.143 17.668 87.267 17.58C87.663 17.558 87.993 17.646 88.169 17.822C88.389 17.998 88.433 18.394 88.433 18.636C88.433 19.252 88.323 19.318 88.103 19.45C88.015 19.494 87.905 19.516 87.817 19.472C87.685 19.428 87.729 19.428 87.817 18.9C88.037 17.536 87.025 18.196 86.717 18.592C86.123 19.428 84.011 23.498 86.057 22.728C87.047 22.354 89.049 20.264 89.071 20.264C89.577 20.198 89.709 20.638 89.555 20.902C89.247 21.408 88.543 22.2 87.883 22.706C87.069 23.322 86.299 23.674 85.441 23.586ZM91.5947 21.452C90.9127 22.574 90.6047 22.992 90.2527 23.322C89.7907 23.74 89.2627 23.894 88.6027 23.762C88.3167 23.718 88.1187 23.608 88.0087 23.454C87.5027 22.816 87.9207 20.638 88.9107 19.23C89.1967 18.812 89.4387 18.548 89.8127 18.24C90.4067 17.69 90.8687 17.492 91.5287 17.47C91.8807 17.47 92.2987 17.734 92.4527 18.02L92.5187 17.954C92.6287 17.822 92.7607 17.778 93.0467 17.756C93.4647 17.734 93.7507 17.822 93.8607 18.02C93.8827 18.042 93.8827 18.042 93.8827 18.042V18.064V18.086L93.8167 18.262C93.7507 18.46 93.7287 18.482 93.6407 18.504C93.5967 18.504 93.5527 18.548 93.5527 18.57C93.3767 19.186 92.8487 20.55 92.8047 21.386C92.7387 22.31 92.8927 22.596 93.2447 22.486C94.0807 22.222 95.5547 19.736 95.5767 19.736C96.0607 19.648 96.2807 20.198 96.1927 20.44C95.8847 21.474 94.5647 22.992 93.5527 23.212C92.7607 23.388 91.7487 23.014 91.6167 21.716C91.6167 21.628 91.6167 21.54 91.5947 21.452ZM89.2407 22.816C89.2407 22.816 89.3507 22.706 89.4387 22.574C89.8787 22.024 90.1867 21.562 91.0447 20.154C91.3527 19.648 91.7047 19.076 91.8587 18.878C92.1007 18.504 92.1007 18.482 92.0567 18.416C91.9687 18.284 91.8587 18.174 91.7707 18.174C91.5727 18.152 91.0447 18.526 90.7147 18.922C90.1427 19.626 89.5927 20.792 89.3507 21.848C89.2627 22.222 89.1967 22.816 89.2407 22.816Z" fill="white"/>
</svg>
